<svg xmlns="http://www.w3.org/2000/svg" width="1600" height="482"><g fill-rule="evenodd"><path fill="#f90" d="M992.61 376.91c-92.98 68.51-227.75 105.06-343.78 105.06-162.69 0-309.16-60.15-419.97-160.19-8.71-7.87-.91-18.59 9.54-12.47C357.99 378.86 505.85 420.7 658.58 420.7c103.01 0 216.33-21.3 320.52-65.51 15.74-6.68 28.9 10.31 13.51 21.72"/><path fill="#f90" d="M1031.26 332.71c-11.84-15.18-78.56-7.18-108.51-3.62-9.12 1.11-10.51-6.83-2.3-12.54 53.15-37.38 140.34-26.59 150.51-14.06 10.17 12.6-2.65 99.97-52.58 141.67-7.66 6.41-14.98 3-11.56-5.5 11.21-27.98 36.35-90.71 24.44-105.95"/><path d="M924.84 52.63V16.29c0-5.5 4.18-9.19 9.2-9.19h162.76c5.22 0 9.4 3.76 9.4 9.19v31.12c-.07 5.22-4.45 12.04-12.25 22.84l-84.35 120.36c31.34-.76 64.43 3.9 92.84 19.92 6.41 3.62 8.15 8.91 8.64 14.13v38.78c0 5.29-5.85 11.48-11.98 8.28-50.08-26.25-116.59-29.1-171.96.28-5.64 3.06-11.56-3.06-11.56-8.36v-36.82c0-5.92.07-16.02 5.99-25l97.71-140.07h-85.04c-5.22 0-9.4-3.69-9.4-9.12M281.58 279.38c-4.73-.35-8.49-3.9-8.84-8.43V16.92c0-5.08 4.25-9.12 9.54-9.12h46.18c4.8.21 8.63 3.9 8.98 8.49V49.5h.91c12.04-32.1 34.68-47.06 65.18-47.06 31 0 50.36 14.96 64.29 47.06 11.98-32.1 39.21-47.06 68.39-47.06 20.76 0 43.46 8.56 57.32 27.77C609.2 51.59 606 82.64 606 109.86l-.07 160.33c0 5.08-4.25 9.19-9.54 9.19h-49.45c-4.95-.35-8.92-4.32-8.92-9.19V135.55c0-10.72.98-37.46-1.39-47.62-3.69-17.06-14.77-21.86-29.11-21.86-11.98 0-24.52 8-29.6 20.81-5.09 12.81-4.6 34.26-4.6 48.67v134.64c0 5.08-4.25 9.19-9.54 9.19h-49.45c-5.01-.35-8.91-4.32-8.91-9.19l-.07-134.64c0-28.34 4.66-70.04-30.51-70.04-35.59 0-34.2 40.66-34.2 70.04v134.64c0 5.08-4.25 9.19-9.54 9.19zm1078-133.67c0 77.49-43.95 138.96-113.25 138.96-72.15 0-111.43-63.08-111.43-141.67 0-79.09 39.77-140.56 111.43-140.56 73.48 0 113.25 63.07 113.25 143.27m-151.62-10.72c0 31.05-.49 97.33 38.37 97.33 38.38 0 40.19-53.47 40.19-86.05 0-21.44-.91-47.06-7.38-67.39-5.58-17.69-16.65-24.58-32.39-24.58-36.49 0-38.79 49.71-38.79 80.69m197.59 144.39c-4.95-.35-8.92-4.32-8.92-9.19l-.07-254.11c.42-4.66 4.53-8.28 9.54-8.28h45.9c4.32.21 7.87 3.13 8.85 7.1v38.85h.9c13.86-34.74 33.29-51.31 67.49-51.31 22.22 0 43.88 8 57.81 29.93C1600 52.7 1600 86.88 1600 111.46v159.91c-.56 4.46-4.67 8.01-9.54 8.01h-49.66c-4.53-.35-8.29-3.69-8.78-8.01V133.39c0-27.78 3.21-68.44-30.99-68.44-12.05 0-23.12 8.08-28.62 20.33-6.97 15.53-7.87 30.98-7.87 48.11v136.8c-.07 5.08-4.39 9.19-9.68 9.19zm-572.22.49c-16.44-13.65-19.44-19.99-28.42-33-27.16 27.7-46.45 35.99-81.63 35.99-41.71 0-74.1-25.69-74.1-77.14 0-40.17 21.73-67.53 52.79-80.89 26.89-11.84 64.43-13.93 93.12-17.2v-6.4c0-11.77.91-25.69-6.06-35.86-5.99-9.12-17.55-12.88-27.79-12.88-18.87 0-35.66 9.68-39.77 29.73-.83 4.45-4.11 8.84-8.63 9.05l-47.99-5.15c-4.04-.91-8.57-4.18-7.38-10.38C668.47 17.54 721.12 0 768.21 0c24.09 0 55.57 6.41 74.59 24.65 24.1 22.48 21.8 52.49 21.8 85.14v77.14c0 23.18 9.61 33.34 18.66 45.87 3.14 4.46 3.83 9.82-.21 13.16-10.1 8.43-28.06 24.09-37.95 32.86l-.07-.14c-3.28 2.93-8.01 3.13-11.7 1.19m-38.24-121.84v-10.72c-35.87 0-73.69 7.66-73.69 49.85 0 21.37 11.15 35.85 30.16 35.85 13.86 0 26.4-8.56 34.27-22.48 9.75-17.13 9.26-33.21 9.26-52.5M195.85 278.68c-3.28 2.93-8.01 3.13-11.7 1.19-16.44-13.65-19.37-19.99-28.42-33-27.16 27.7-46.38 35.99-81.63 35.99-41.64 0-74.1-25.69-74.1-77.14 0-40.17 21.8-67.53 52.79-80.89 26.89-11.84 64.43-13.93 93.12-17.2v-6.4c0-11.77.91-25.69-5.99-35.86-6.06-9.12-17.62-12.88-27.79-12.88-18.87 0-35.73 9.68-39.84 29.73-.83 4.45-4.11 8.84-8.56 9.05l-48.06-5.15c-4.04-.91-8.5-4.18-7.38-10.38C19.36 17.54 71.95 0 119.03 0c24.09 0 55.57 6.41 74.59 24.65 24.1 22.48 21.8 52.49 21.8 85.14v77.14c0 23.18 9.61 33.34 18.66 45.87 3.21 4.46 3.9 9.82-.14 13.16-10.09 8.43-28.06 24.09-37.95 32.86zm-49.94-120.65v-10.72c-35.8 0-73.62 7.66-73.62 49.85 0 21.37 11.08 35.85 30.09 35.85 13.93 0 26.4-8.56 34.27-22.48 9.75-17.13 9.26-33.21 9.26-52.5"/></g></svg>