<svg xmlns="http://www.w3.org/2000/svg" width="1538" height="328"><path fill="#737373" fill-rule="evenodd" d="M638.86 262.4h-34.13V107.97h-.45L543.31 262.4h-22.76l-62.34-154.43h-.45V262.4h-31.4V65.6h49.15l56.42 145.78h.91L592.45 65.6h46.41zm28.21-181.77c0-5.46 1.82-10.02 5.92-13.66 4.09-3.65 8.64-5.47 14.1-5.47 5.92 0 10.93 1.82 14.57 5.47 3.64 3.64 5.91 8.2 5.91 13.66 0 5.47-1.82 10.03-5.91 13.67-4.1 3.64-8.65 5.47-14.57 5.47-5.91 0-10.46-1.83-14.1-5.47-3.64-4.1-5.92-8.66-5.92-13.67m36.86 40.55V262.4h-33.22V121.18zm100.56 117.08c5.01 0 10.47-.92 16.38-3.65 5.92-2.28 11.38-5.47 16.38-9.11v30.98c-5.46 3.19-11.37 5.46-18.2 6.83-6.82 1.37-14.1 2.28-22.29 2.28-20.93 0-37.77-6.38-50.51-19.59-13.2-13.21-19.57-30.07-19.57-50.11 0-22.78 6.83-41.46 20.02-56.03 13.2-14.58 31.86-21.87 56.43-21.87 6.37 0 12.74.91 18.65 2.28 6.37 1.36 11.38 3.64 15.02 5.46v31.89c-5.01-3.64-10.47-6.83-15.47-8.65-5.46-1.83-10.92-3.19-16.38-3.19-13.2 0-23.66 4.1-31.85 12.75-8.2 8.66-11.84 20.05-11.84 34.63 0 14.12 4.1 25.51 11.84 33.25 7.73 7.75 18.2 11.85 31.39 11.85M931.45 118.9c2.73 0 5 0 7.28.46 2.27.45 4.09.91 5.46 1.36v33.71c-1.82-1.36-4.1-2.73-7.74-3.64s-7.28-1.82-12.28-1.82c-8.2 0-15.02 3.64-20.48 10.47-5.46 6.84-8.65 17.32-8.65 31.89v71.07h-33.21V121.18h33.21v22.32h.46c3.18-7.74 7.73-13.67 13.65-18.22 6.37-4.1 13.65-6.38 22.3-6.38m14.56 75.17c0-23.24 6.82-41.91 19.56-55.58 13.2-13.67 31.4-20.5 54.61-20.5 21.84 0 39.13 6.38 51.41 19.59 12.29 13.21 18.66 30.98 18.66 53.3 0 22.78-6.82 41-19.57 54.66-13.19 13.67-30.94 20.5-53.69 20.5-21.84 0-39.13-6.37-51.87-19.13-12.74-13.21-19.11-30.98-19.11-52.84m34.58-1.37c0 14.58 3.18 25.97 10.01 33.71 6.82 7.75 16.38 11.85 28.67 11.85 11.83 0 21.38-3.65 27.75-11.85 6.37-7.74 9.56-19.13 9.56-34.62 0-15.03-3.19-26.42-9.56-34.62-6.37-7.75-15.92-11.85-27.3-11.85-12.28 0-21.39 4.1-28.21 12.3-7.74 8.66-10.92 20.05-10.92 35.08m159.26-34.17c0 4.56 1.36 8.66 4.55 11.39 3.18 2.74 9.56 5.92 20.02 10.02 13.2 5.47 22.75 11.39 27.76 17.77 5.46 6.83 8.19 14.58 8.19 24.15 0 13.21-5.01 23.68-15.47 31.88-10.01 8.2-24.12 11.85-41.41 11.85-5.92 0-12.29-.91-19.57-2.28s-13.19-3.19-18.2-5.47v-32.8c5.92 4.1 12.74 7.75 19.57 10.03 6.82 2.27 13.19 3.64 19.11 3.64 7.28 0 13.2-.91 16.38-3.19 3.64-2.28 5.46-5.46 5.46-10.48 0-4.55-1.82-8.2-5.46-11.84-3.64-3.19-10.92-6.83-20.93-10.93-12.29-5.01-20.93-10.94-25.94-17.31-5-6.38-7.73-14.58-7.73-24.6 0-12.76 5-23.24 15.01-31.44s23.21-12.3 39.14-12.3c5 0 10.46.46 16.38 1.82 5.91 1.37 11.37 2.74 15.47 4.1v32.35c-4.55-2.73-9.56-5.47-15.47-7.75a48.3 48.3 0 0 0-17.29-3.18c-6.38 0-11.38 1.36-14.57 3.64-3.18 3.19-5 6.38-5 10.93m74.62 35.54c0-23.24 6.83-41.91 19.57-55.58 13.2-13.67 31.4-20.5 54.6-20.5 21.85 0 39.14 6.38 51.42 19.59 12.29 13.21 18.66 30.98 18.66 53.3 0 22.78-6.83 41-19.57 54.66-13.19 13.67-30.94 20.5-53.69 20.5-21.84 0-39.13-6.37-51.87-19.13-12.29-13.21-19.12-30.98-19.12-52.84m34.59-1.37c0 14.58 3.18 25.97 10.01 33.71 6.82 7.75 16.38 11.85 28.66 11.85 11.83 0 21.39-3.65 27.76-11.85 6.37-7.74 9.56-19.13 9.56-34.62 0-15.03-3.19-26.42-9.56-34.62-6.37-7.75-15.93-11.85-27.3-11.85-12.29 0-21.39 4.1-28.21 12.3-7.28 8.66-10.92 20.05-10.92 35.08m170.63-44.19V262.4h-33.67V148.51h-23.66v-27.33h23.66v-19.59c0-14.58 5.01-26.88 14.56-36.45 9.56-9.56 21.84-14.12 36.86-14.12 4.09 0 7.73.46 10.92.46 3.18 0 5.91.91 8.19 1.82V82c-.91-.46-3.19-1.37-5.92-2.28s-5.91-1.36-9.55-1.36c-6.83 0-12.29 2.27-15.93 6.37s-5.46 10.94-5.46 19.14v16.85h49.6V88.83l33.22-10.02v41.91h33.67v27.34h-33.67v66.05c0 8.66 1.82 14.58 4.55 18.22 3.18 3.65 8.19 5.47 15.01 5.47 1.82 0 4.1-.46 6.83-1.37s5-1.82 6.82-3.19v27.34c-2.27 1.36-5.46 2.28-10.46 3.19-5.01.91-9.56 1.36-14.56 1.36-14.11 0-24.57-3.64-31.4-10.93-6.82-7.29-10.46-18.68-10.46-33.71l.45-71.98z"/><path fill="#f25022" d="M0 0h155.62v155.8H0z"/><path fill="#7fba00" d="M172 0h155.62v155.8H172z"/><path fill="#00a4ef" d="M0 172.2h155.62V328H0z"/><path fill="#ffb900" d="M172 172.2h155.62V328H172z"/></svg>