<svg xmlns="http://www.w3.org/2000/svg" viewBox="0 -1 560 372"><path fill="#76b900" d="M558.61-.18V369.2H208.68v-43.37c7.4.82 14.8 1.24 22.62 1.24 81 0 223.89-41.32 285.16-92.71-9.05-9.04-52.84-29.81-63.53-38.44-64.56 55.5-131.17 102.57-223.28 102.57-6.99 0-14.18-.61-21.18-1.44v-30.83c8.43 1.44 16.86 2.26 25.5 2.26 98.89 0 193.88-115.52 193.88-115.52S344.99 44.63 218.14 48.95l-9.87.62V-.18zM218.14 76.29c91.28-2.88 151.11 78.52 151.11 78.52s-64.56 89.62-133.84 89.62c-9.25 0-18.3-1.44-26.94-4.31V138.98c35.57 4.32 42.77 19.94 63.95 55.5l47.49-39.88s-34.75-45.42-93.14-45.42c-6.16-.21-12.33.2-18.5.82V76.71c-100.81 7.9-151.11 82.21-151.11 82.21S95.6 283.08 208.27 297.05v28.78C54.69 311.44 0 153.17 0 153.17s96.63-94.56 208.47-103.6v27.12c3.23-.21 6.45-.4 9.67-.4m-9.87 190.14C123.15 251.22 99.51 162.62 99.51 162.62S140.42 117.4 208.27 110v28.78h-.21c-35.56-4.32-63.53 28.98-63.53 28.98s15.84 56.12 63.74 72.36z"/></svg>
