<svg xmlns="http://www.w3.org/2000/svg" width="1163" height="1158"><g fill="#e82127"><path d="M581.81 1157.59 744.44 242.9c155.02 0 203.91 17 210.97 86.39 0 0 103.99-38.78 156.44-117.53-204.67-94.85-410.31-99.12-410.31-99.12l-120 146.16.27-.02-119.99-146.17s-205.65 4.29-410.29 99.13c52.4 78.75 156.43 117.53 156.43 117.53 7.1-69.39 55.94-86.39 209.91-86.5z"/><path d="M581.75 70.42c165.44-1.27 354.81 25.59 548.67 110.09 25.91-46.64 32.57-67.25 32.57-67.25C951.08 29.41 752.62.72 581.73 0 410.84.72 212.39 29.42.5 113.26c0 0 9.46 25.39 32.55 67.25C226.87 96.01 416.28 69.15 581.73 70.42z"/></g></svg>