<svg xmlns="http://www.w3.org/2000/svg" width="1559" height="514"><g fill-rule="evenodd"><path fill="#ea4335" d="M666.97 270.82c0 73.85-57.74 128.26-128.59 128.26-70.86 0-128.6-54.41-128.6-128.26 0-74.36 57.74-128.25 128.6-128.25 70.85 0 128.59 53.89 128.59 128.25m-56.29 0c0-46.14-33.47-77.71-72.3-77.71-38.84 0-72.31 31.57-72.31 77.71 0 45.69 33.47 77.72 72.31 77.72 38.83 0 72.3-32.09 72.3-77.72"/><path fill="#fbbc05" d="M944.38 270.82c0 73.85-57.74 128.26-128.59 128.26-70.86 0-128.6-54.41-128.6-128.26 0-74.3 57.74-128.25 128.6-128.25 70.85 0 128.59 53.89 128.59 128.25m-56.29 0c0-46.14-33.47-77.71-72.3-77.71-38.84 0-72.3 31.57-72.3 77.71 0 45.69 33.46 77.72 72.3 77.72 38.83 0 72.3-32.09 72.3-77.72"/><path fill="#4285f4" d="M1210.23 380.58c0 94.72-55.83 133.4-121.83 133.4-62.13 0-99.52-41.57-113.62-75.58l49.01-20.41c8.72 20.88 30.11 45.51 64.55 45.51 42.25 0 68.43-26.08 68.43-75.17v-18.45h-1.96c-12.6 15.55-36.88 29.14-67.51 29.14-64.09 0-122.81-55.86-122.81-127.73 0-72.4 58.72-128.72 122.81-128.72 30.58 0 54.85 13.58 67.51 28.68h1.96v-20.88h53.46zm-49.47-109.29c0-45.17-30.11-78.18-68.43-78.18-38.84 0-71.37 33.01-71.37 78.18 0 44.7 32.53 77.25 71.37 77.25 38.32 0 68.43-32.55 68.43-77.25"/></g><path fill="#34a853" d="M1298.37 15.35v375.87h-54.91V15.35z"/><path fill="#ea4335" fill-rule="evenodd" d="m1512.32 313.04 43.69 29.14c-14.1 20.88-48.08 56.84-106.8 56.84-72.82 0-127.2-56.32-127.2-128.25 0-76.28 54.84-128.26 120.9-128.26 66.52 0 99.06 52.97 109.69 81.59l5.84 14.57-171.36 71.01c13.12 25.74 33.52 38.86 62.13 38.86 28.67 0 48.55-14.11 63.11-35.5m-19.94-93.74c-6.3-16.02-25.25-27.18-47.56-27.18-28.61 0-68.43 25.27-66.99 74.77z"/><path fill="#4285f4" d="M201.96 237.46v-54.42h183.26c1.79 9.49 2.72 20.71 2.72 32.85 0 40.82-11.16 91.31-47.11 127.27-34.96 36.43-79.64 55.86-138.82 55.86C92.32 399.02.08 309.62.08 199.87S92.32.72 202.01.72c60.69 0 103.92 23.82 136.4 54.87l-38.38 38.4c-23.29-21.86-54.84-38.86-98.07-38.86-80.11 0-142.76 64.59-142.76 144.74s62.65 144.74 142.76 144.74c51.95 0 81.54-20.88 100.5-39.84 15.37-15.38 25.49-37.36 29.47-67.37z"/></svg>