<svg xmlns="http://www.w3.org/2000/svg" width="1800" height="430"><path fill-rule="evenodd" d="M422.75 401.01h-99.83l-30.54-73.71H126.01l-27.83 73.71H0L150 28.76h107.46zM205.1 117.71l-54.55 144.64h114.56z"/><path d="M785.38 28.76h80.73v372.25h-92.75V168.49L673 285.28h-14.18L558.46 168.49V401h-92.75V28.76h80.73L665.9 166.85z"/><path fill-rule="evenodd" d="M1101.09 28.76c135.82 0 205.63 84.59 205.63 186.66 0 106.97-67.63 185.59-216 185.59H936.89V28.76zm-10.92 304.02c93.28 0 121.1-63.33 121.1-117.92 0-63.86-34.37-117.88-122.19-117.88h-59.45v235.8z"/><path d="M1491.23 117.03 1374.29 0H1800v425.97l-116.94-117.01V117.03zM1491.09 140.47 1370.7 260.93v168.62h168.5l120.39-120.45h-168.5z"/></svg>