<?xml version="1.0" encoding="UTF-8"?>
<svg width="61px" height="14px" viewBox="0 0 61 14" version="1.1" xmlns="http://www.w3.org/2000/svg" xmlns:xlink="http://www.w3.org/1999/xlink">
    <title>meta</title>
    <defs>
        <linearGradient x1="76.0631579%" y1="89.1994745%" x2="26.1600838%" y2="12.193568%" id="linearGradient-1">
            <stop stop-color="#0867DF" offset="0.06%"></stop>
            <stop stop-color="#0668E1" offset="45.39%"></stop>
            <stop stop-color="#0064E0" offset="85.91%"></stop>
        </linearGradient>
        <linearGradient x1="21.6695184%" y1="75.7084784%" x2="97.0681785%" y2="24.150913%" id="linearGradient-2">
            <stop stop-color="#0064DF" offset="13.23%"></stop>
            <stop stop-color="#0064E0" offset="99.88%"></stop>
        </linearGradient>
        <linearGradient x1="38.188235%" y1="89.1271592%" x2="60.9644626%" y2="16.1310727%" id="linearGradient-3">
            <stop stop-color="#0072EC" offset="1.47%"></stop>
            <stop stop-color="#0064DF" offset="68.81%"></stop>
        </linearGradient>
        <linearGradient x1="47.0127271%" y1="90.190084%" x2="52.1638352%" y2="15.7447284%" id="linearGradient-4">
            <stop stop-color="#007CF6" offset="7.31%"></stop>
            <stop stop-color="#0072EC" offset="99.43%"></stop>
        </linearGradient>
        <linearGradient x1="52.1548093%" y1="58.247858%" x2="47.5909532%" y2="37.0867332%" id="linearGradient-5">
            <stop stop-color="#007FF9" offset="7.31%"></stop>
            <stop stop-color="#007CF6" offset="100%"></stop>
        </linearGradient>
        <linearGradient x1="37.6891174%" y1="12.7401451%" x2="61.9608121%" y2="63.5382962%" id="linearGradient-6">
            <stop stop-color="#007FF9" offset="7.31%"></stop>
            <stop stop-color="#0082FB" offset="100%"></stop>
        </linearGradient>
        <linearGradient x1="34.7109447%" y1="68.8588033%" x2="62.3917497%" y2="23.173995%" id="linearGradient-7">
            <stop stop-color="#007FF8" offset="27.99%"></stop>
            <stop stop-color="#0082FB" offset="91.41%"></stop>
        </linearGradient>
        <linearGradient x1="43.7216206%" y1="6.23469004%" x2="57.6506791%" y2="98.5143397%" id="linearGradient-8">
            <stop stop-color="#0082FB" offset="0%"></stop>
            <stop stop-color="#0081FA" offset="99.95%"></stop>
        </linearGradient>
        <linearGradient x1="60.1191344%" y1="4.6605261%" x2="39.8130591%" y2="69.0769741%" id="linearGradient-9">
            <stop stop-color="#0081FA" offset="6.19%"></stop>
            <stop stop-color="#0080F9" offset="100%"></stop>
        </linearGradient>
        <linearGradient x1="30.1564636%" y1="59.320684%" x2="61.1544579%" y2="33.2429617%" id="linearGradient-10">
            <stop stop-color="#027AF3" offset="0%"></stop>
            <stop stop-color="#0080F9" offset="100%"></stop>
        </linearGradient>
        <linearGradient x1="20.4318627%" y1="50%" x2="82.1145416%" y2="50%" id="linearGradient-11">
            <stop stop-color="#0377EF" offset="0%"></stop>
            <stop stop-color="#0279F1" offset="99.94%"></stop>
        </linearGradient>
        <linearGradient x1="40.2412073%" y1="35.2983552%" x2="72.5372745%" y2="57.8113241%" id="linearGradient-12">
            <stop stop-color="#0471E9" offset="0.19%"></stop>
            <stop stop-color="#0377EF" offset="100%"></stop>
        </linearGradient>
        <linearGradient x1="32.1398726%" y1="19.7185472%" x2="68.1185778%" y2="84.9077031%" id="linearGradient-13">
            <stop stop-color="#0867DF" offset="27.65%"></stop>
            <stop stop-color="#0471E9" offset="100%"></stop>
        </linearGradient>
    </defs>
    <g id="meta" stroke="none" fill="none" fill-rule="evenodd" stroke-width="1">
        <g id="Group">
            <polygon id="Path" fill="#1C2B33" fill-rule="nonzero" points="22.2234 0.801117 24.5114 0.801117 28.4019 7.83866 32.2923 0.801123 34.5308 0.801123 34.5308 12.3651 32.664 12.3651 32.664 3.50218 29.2526 9.63937 27.5015 9.63937 24.0901 3.50218 24.0901 12.3651 22.2234 12.3651"></polygon>
            <path d="M40.5521,12.5731 C39.6875,12.5731 38.9275,12.3818 38.2723,11.999 C37.617,11.6163 37.1062,11.0863 36.7401,10.409 C36.3738,9.73165 36.1907,8.95521 36.1908,8.07968 C36.1908,7.19314 36.3698,6.40844 36.7277,5.72557 C37.0856,5.04284 37.5826,4.50867 38.2186,4.12307 C38.8547,3.73772 39.5857,3.54499 40.4117,3.54488 C41.2321,3.54488 41.9383,3.73898 42.5304,4.12719 C43.1222,4.51549 43.5779,5.05929 43.8974,5.75859 C44.2167,6.45798 44.3764,7.27848 44.3764,8.22009 L44.3764,8.73213 L38.041,8.73213 C38.1567,9.43712 38.4417,9.99192 38.896,10.3965 C39.3503,10.8013 39.9243,11.0037 40.6181,11.0036 C41.1743,11.0036 41.6534,10.921 42.0554,10.7558 C42.4573,10.5906 42.8345,10.3401 43.187,10.0042 L44.1782,11.2184 C43.1924,12.1216 41.9837,12.5732 40.5521,12.5731 Z M41.915,5.71312 C41.5239,5.31395 41.0118,5.11432 40.3786,5.11425 C39.7618,5.11425 39.2456,5.31802 38.8299,5.72556 C38.414,6.13307 38.1511,6.68099 38.041,7.36931 L42.5841,7.36931 C42.5289,6.66443 42.3059,6.11236 41.915,5.71312 Z" id="Shape" fill="#1C2B33" fill-rule="nonzero"></path>
            <path d="M46.6399,5.27981 L44.9218,5.27981 L44.9218,3.75168 L46.6399,3.75168 L46.6399,1.22414 L48.4405,1.22414 L48.4405,3.75168 L51.0507,3.75168 L51.0507,5.27981 L48.4405,5.27981 L48.4405,9.15371 C48.4405,9.79793 48.5507,10.2577 48.7709,10.5331 C48.9911,10.8085 49.3683,10.9462 49.9026,10.9461 C50.1392,10.9461 50.3402,10.9365 50.5055,10.9172 C50.6707,10.898 50.8524,10.8718 51.0507,10.8387 L51.0507,12.3503 C50.8245,12.4157 50.594,12.4654 50.361,12.499 C50.0943,12.5382 49.8251,12.5576 49.5556,12.5568238 C47.6117,12.5568238 46.6398,11.494 46.6399,9.36848 L46.6399,5.27981 Z" id="Path" fill="#1C2B33" fill-rule="nonzero"></path>
            <path d="M60.4343,12.3666 L58.6667,12.3666 L58.6667,11.1606 C58.3528,11.6122 57.9536,11.9605 57.469,12.2055 C56.9844,12.4504 56.4337,12.573 55.817,12.5731 C55.0571,12.5731 54.3839,12.379 53.7975,11.9907 C53.211,11.6025 52.7498,11.0684 52.4139,10.3883 C52.078,9.70823 51.91,8.93042 51.91,8.05489 C51.91,7.17384 52.0808,6.39462 52.4222,5.71724 C52.7635,5.03999 53.2357,4.5086 53.8388,4.12307 C54.4417,3.73772 55.1342,3.54499 55.9161,3.54488 C56.5053,3.54488 57.034,3.65917 57.502,3.88773 C57.9638,4.11109 58.3637,4.44433 58.6667,4.85823 L58.6667,3.75143 L60.4343,3.75143 L60.4343,12.3666 Z M58.6337,6.76632 C58.4409,6.27622 58.1366,5.88935 57.7209,5.60572 C57.3051,5.32217 56.8246,5.18039 56.2796,5.18039 C55.5086,5.18039 54.8946,5.43919 54.4376,5.95679 C53.9805,6.47443 53.752,7.17379 53.752,8.05488 C53.752,8.94152 53.9723,9.64363 54.4128,10.1612 C54.8533,10.6788 55.4508,10.9376 56.2053,10.9376 C56.7614,10.9376 57.2569,10.7944 57.692,10.508 C58.127,10.2218 58.4409,9.83639 58.6337,9.35166 L58.6337,6.76632 Z" id="Shape" fill="#1C2B33" fill-rule="nonzero"></path>
            <path d="M5.326,0.411171 C5.32011,0.411171 5.31426,0.411171 5.30838,0.411171 L5.2843,2.39969 C5.28981,2.39963 5.29531,2.39958 5.30083,2.39958 L5.30084,2.39958 C6.60967,2.39958 7.62487,3.43154 9.83142,7.14827 L9.96593,7.37454 L9.97473,7.38935 L11.2099,5.53604 L11.2014,5.52172 C10.9107,5.04895 10.6314,4.61396 10.3636,4.21675 C10.053,3.75653 9.75593,3.3454 9.46764,2.97833 C8.00794,1.11976 6.78688,0.411171 5.326,0.411171 Z" id="Path" fill="url(#linearGradient-1)" fill-rule="nonzero"></path>
            <path d="M5.30828,0.411222 C3.84031,0.418774 2.54252,1.36802 1.6054,2.82057 C1.60265,2.82482 1.59991,2.82908 1.59717,2.83335 L3.31736,3.76962 C3.32015,3.76539 3.32295,3.76115 3.32576,3.75694 C3.87298,2.93302 4.55398,2.40751 5.28421,2.39969 C5.28972,2.39963 5.29522,2.39958 5.30074,2.39958 L5.32591,0.411171 C5.32002,0.411171 5.31417,0.411171 5.30828,0.411222 Z" id="Path" fill="url(#linearGradient-2)" fill-rule="nonzero"></path>
            <path d="M1.60525,2.82172 C1.6025,2.82597 1.59976,2.83023 1.59702,2.8345 C0.981226,3.79308 0.522172,4.96937 0.274087,6.23838 C0.273012,6.24387 0.271941,6.24937 0.270874,6.25487 L2.20344,6.71086 C2.20444,6.70535 2.20546,6.69984 2.20648,6.69432 C2.41304,5.57908 2.80632,4.54473 3.31719,3.77077 C3.31999,3.76654 3.32279,3.7623 3.3256,3.75808 L1.60525,2.82172 Z" id="Path" fill="url(#linearGradient-3)" fill-rule="nonzero"></path>
            <path d="M2.2066,6.69497 L0.274201,6.23902 C0.273126,6.24451 0.272055,6.25001 0.270988,6.25551 C0.13571,6.95341 0.0668876,7.66256 0.0654296658,8.37344 C0.0654296658,8.37919 0.0654296658,8.38494 0.0654296658,8.39068 L2.04735,8.56799 C2.04719,8.56222 2.04703,8.55652 2.04689,8.55073 C2.04592,8.5095 2.04542,8.46771 2.04541,8.42536 C2.04639,7.85048 2.09932,7.27686 2.20355,6.7115 C2.20456,6.70599 2.20557,6.70048 2.2066,6.69497 Z" id="Path" fill="url(#linearGradient-4)" fill-rule="nonzero"></path>
            <path d="M2.10763,9.1836 C2.07208,8.97928 2.05193,8.77258 2.04735,8.56525 C2.04719,8.55948 2.04703,8.55378 2.04689,8.54799 L0.0654296658,8.3707 C0.0654296658,8.37645 0.0654296658,8.3822 0.0654296658,8.38794 L0.0654296658,8.38906 C0.0654296658,8.83149 0.102326,9.24574 0.174032,9.62842 C0.175069,9.63396 0.176088,9.63939 0.177141,9.64492 L2.11063,9.20015 C2.10961,9.19466 2.10862,9.18912 2.10763,9.1836 Z" id="Path" fill="url(#linearGradient-5)" fill-rule="nonzero"></path>
            <path d="M2.55909,10.2118 C2.34342,9.97642 2.19079,9.63686 2.11055,9.20259 C2.10953,9.19709 2.10854,9.19156 2.10755,9.18604 L0.17395,9.63086 C0.174987,9.6364 0.176006,9.64183 0.177058,9.64736 C0.323207,10.4147 0.609831,11.0542 1.0203,11.538 C1.02395,11.5423 1.02761,11.5466 1.03129,11.5509 L2.57061,10.2242 C2.56676,10.2201 2.5629,10.216 2.55909,10.2118 Z" id="Path" fill="url(#linearGradient-6)" fill-rule="nonzero"></path>
            <path d="M8.28762,4.71004 C7.12243,6.49726 6.41657,7.61823 6.41657,7.61823 C4.86443,10.0513 4.32748,10.5966 3.46331,10.5966 C3.10272,10.5966 2.80148,10.4682 2.57069,10.2228 C2.56685,10.2187 2.56298,10.2146 2.55917,10.2104 L1.02039,11.5366 C1.02404,11.5409 1.0277,11.5452 1.03137,11.5495 C1.59814,12.2101 2.39813,12.5767 3.38781,12.5767 C4.88512,12.5767 5.96201,11.8708 7.87641,8.52434 C7.87641,8.52434 8.67446,7.11507 9.22346,6.1443 C8.88339,5.59524 8.57391,5.1199 8.28762,4.71004 Z" id="Path" fill="#0082FB" fill-rule="nonzero"></path>
            <path d="M10.3645,1.89059 C10.3605,1.89476 10.3565,1.89902 10.3526,1.9032 C10.0466,2.22921 9.75297,2.59327 9.46729,2.97954 C9.75557,3.34661 10.0532,3.75854 10.3638,4.21876 C10.7299,3.65371 11.0716,3.19607 11.4065,2.84531 C11.4105,2.84115 11.4144,2.83711 11.4184,2.83298 L10.3645,1.89059 Z" id="Path" fill="url(#linearGradient-7)" fill-rule="nonzero"></path>
            <path d="M16.0214,1.71381 C15.2088,0.892867 14.2399,0.411171 13.2041,0.411171 C12.1119,0.411171 11.1932,1.0097 10.3645,1.889 C10.3606,1.89317 10.3566,1.89743 10.3527,1.90161 L11.4066,2.84373 C11.4106,2.83957 11.4145,2.83553 11.4184,2.8314 C11.9643,2.26359 12.4926,1.98009 13.0782,1.98009 L13.0782,1.98009 C13.7085,1.98009 14.2987,2.27681 14.8097,2.797 C14.8137,2.80108 14.8177,2.80512 14.8217,2.80923 L16.0335,1.72603 C16.0294,1.72193 16.0254,1.71789 16.0214,1.71381 Z" id="Path" fill="#0082FB" fill-rule="nonzero"></path>
            <path d="M18.3705,8.10948 C18.325,5.4736 17.4026,3.11715 16.0335,1.72556 C16.0294,1.72147 16.0254,1.71742 16.0213,1.71334 L14.8097,2.79653 C14.8137,2.80061 14.8177,2.80465 14.8217,2.80876 C15.8517,3.86677 16.5581,5.83469 16.6224,8.10891 C16.6225,8.11464 16.6227,8.12036 16.6229,8.12609 L18.3708,8.12665 C18.3707,8.12093 18.3706,8.11521 18.3705,8.10948 Z" id="Path" fill="url(#linearGradient-8)" fill-rule="nonzero"></path>
            <path d="M18.3707,8.12848 C18.3706,8.12276 18.3706,8.11703 18.3705,8.1113 L16.6223,8.11074 C16.6225,8.11646 16.6227,8.12219 16.6228,8.12792 C16.6257,8.23466 16.6271,8.34204 16.6271,8.45007 C16.6271,9.07014 16.5345,9.57137 16.3461,9.93325 C16.3433,9.93861 16.3405,9.944 16.3376,9.9493 L17.641,11.3048 C17.6442,11.2999 17.6474,11.295 17.6506,11.2901 C18.1238,10.56 18.3722,9.54575 18.3722,8.31583 C18.3722,8.25323 18.3717,8.19078 18.3707,8.12848 Z" id="Path" fill="url(#linearGradient-9)" fill-rule="nonzero"></path>
            <path d="M16.3462,9.93047 C16.3434,9.93584 16.3406,9.94123 16.3377,9.94653 C16.1747,10.2516 15.9421,10.455 15.6379,10.544 L16.2321,12.4165 C16.3108,12.3898 16.3874,12.3598 16.4619,12.3265 C16.4842,12.3166 16.5062,12.3064 16.5281,12.2959 C16.5408,12.2899 16.5533,12.2837 16.5658,12.2775 C16.9587,12.0817 17.2907,11.7929 17.5592,11.4208 C17.5756,11.3981 17.5919,11.3752 17.6078,11.3518 C17.619,11.3354 17.6301,11.3188 17.6411,11.3021 C17.6443,11.2971 17.6475,11.2922 17.6507,11.2873 L16.3462,9.93047 Z" id="Path" fill="url(#linearGradient-10)" fill-rule="nonzero"></path>
            <path d="M15.2594,10.5947 C15.0602,10.5947 14.8844,10.5651 14.7124,10.4882 L14.104,12.4053 C14.4459,12.5221 14.8107,12.5748 15.2175,12.5748 C15.5923,12.5748 15.9363,12.5186 16.2482,12.4106 L15.6542,10.5387 C15.5261,10.577 15.3931,10.5959 15.2594,10.5947 Z" id="Path" fill="url(#linearGradient-11)" fill-rule="nonzero"></path>
            <path d="M14.0421,9.94117 C14.0384,9.93685 14.0346,9.93249 14.0308,9.92811 L12.631,11.384 C12.6349,11.3882 12.6388,11.3924 12.6427,11.3965 C13.1291,11.9149 13.5936,12.2364 14.1203,12.4129 L14.7282,10.4972 C14.5062,10.4019 14.2916,10.2291 14.0421,9.94117 Z" id="Path" fill="url(#linearGradient-12)" fill-rule="nonzero"></path>
            <path d="M14.031,9.92667 C13.6111,9.43836 13.0916,8.62537 12.2746,7.3107 L11.2098,5.5349 L11.2013,5.52058 L9.96582,7.37339 L9.97462,7.3882 L10.7291,8.65736 C11.4604,9.88114 12.0562,10.7665 12.6311,11.3825 C12.635,11.3867 12.6389,11.3909 12.6428,11.3951 L14.0422,9.93972 C14.0385,9.9354 14.0347,9.93105 14.031,9.92667 Z" id="Path" fill="url(#linearGradient-13)" fill-rule="nonzero"></path>
        </g>
    </g>
</svg>