<svg width="1661" height="389" viewBox="0 0 1661 389" fill="none" xmlns="http://www.w3.org/2000/svg">
<path d="M388.484 2.94185C388.484 1.38184 387.219 0.117193 385.659 0.117193L259.166 0.117188L194.506 64.7763L129.847 0.117193H3.35396C1.79394 0.117193 0.5293 1.38184 0.5293 2.94185V129.435L65.1884 194.094L0.529302 258.753L0.529297 385.247C0.529297 386.807 1.79394 388.072 3.35396 388.072H129.847L194.506 323.413L259.166 388.072H385.659C387.219 388.072 388.484 386.807 388.484 385.247V258.753L323.825 194.094L388.484 129.435V2.94185Z" fill="url(#paint0_linear_138_3169)"/>
<path d="M498.742 296.621L553.842 218.154L500.184 141.995H546.053L579.228 191.614L611.25 141.995H658.272L604.903 218.443L659.715 296.621H613.846L579.805 244.117L545.476 296.621H498.742ZM772.691 301.237C719.611 301.237 688.455 272.966 685.281 229.116L729.419 227.097C732.881 251.329 746.728 264.888 773.268 264.888C794.904 264.888 807.598 256.811 807.598 241.233C807.598 227.097 800.386 218.731 762.018 210.077C709.514 198.249 689.32 183.825 689.32 148.918C689.32 112.281 717.88 87.1833 766.056 87.1833C816.829 87.1833 844.235 116.032 848.562 156.419L804.713 158.727C802.405 137.379 788.846 123.532 765.479 123.532C745.574 123.532 733.458 133.052 733.458 147.476C733.458 162.766 742.978 169.112 776.153 176.036C832.984 187.575 851.735 208.057 851.735 239.213C851.735 277.581 821.156 301.237 772.691 301.237ZM943.243 296.621C911.221 296.621 896.797 282.485 896.797 250.176V174.305H871.988V141.995H896.797V105.646H940.069V141.995H980.745V174.305H940.069V244.983C940.069 259.984 946.416 264.311 959.109 264.311H980.745V296.621H943.243ZM1073.82 300.083C1026.51 300.083 995.354 268.35 995.354 219.308C995.354 170.555 1026.51 138.533 1073.82 138.533C1121.13 138.533 1152.29 170.555 1152.29 219.308C1152.29 268.35 1121.13 300.083 1073.82 300.083ZM1073.82 266.907C1095.46 266.907 1107.86 249.31 1107.86 219.308C1107.86 189.306 1095.46 171.708 1073.82 171.708C1052.19 171.708 1039.78 189.306 1039.78 219.308C1039.78 249.31 1052.19 266.907 1073.82 266.907ZM1249.33 300.083C1201.73 300.083 1170.87 268.061 1170.87 219.308C1170.87 170.555 1201.73 138.533 1249.33 138.533C1290.59 138.533 1320.3 161.035 1324.92 199.114L1280.2 201.134C1277.6 182.094 1265.78 171.997 1249.33 171.997C1227.7 171.997 1215.29 189.306 1215.29 219.308C1215.29 249.31 1227.7 266.907 1249.33 266.907C1266.07 266.907 1277.89 257.099 1280.2 236.04L1324.92 237.771C1320.59 275.85 1291.45 300.083 1249.33 300.083ZM1348.83 296.621V91.799H1392.1V205.461L1449.51 141.995H1501.43L1441.43 205.749L1503.17 296.621H1455.85L1413.45 230.27L1392.1 253.06V296.621H1348.83ZM1580.82 300.083C1532.94 300.083 1508.7 278.158 1506.4 247.868L1550.24 246.425C1552.84 261.138 1562.07 269.504 1580.82 269.504C1596.4 269.504 1605.34 264.6 1605.34 254.214C1605.34 244.694 1600.44 240.079 1573.9 235.751C1524.86 227.674 1510.15 214.981 1510.15 188.152C1510.15 158.438 1533.22 138.533 1578.8 138.533C1622.36 138.533 1644.87 160.746 1648.91 191.614L1605.34 193.345C1603.32 178.344 1593.81 169.112 1578.52 169.112C1562.94 169.112 1554.57 176.036 1554.57 186.421C1554.57 197.672 1562.07 202.288 1583.42 205.461C1633.04 212.673 1650.06 226.52 1650.06 253.349C1650.06 283.351 1622.94 300.083 1580.82 300.083Z" fill="black"/>
<defs>
<linearGradient id="paint0_linear_138_3169" x1="388.484" y1="0.117188" x2="0.529327" y2="388.072" gradientUnits="userSpaceOnUse">
<stop stop-color="#6EC7E2"/>
<stop offset="1" stop-color="#1FD59A"/>
</linearGradient>
</defs>
</svg>
